<svg xmlns="http://www.w3.org/2000/svg" xmlns:xlink="http://www.w3.org/1999/xlink" version="1.1" width="256" height="256" viewBox="0 0 256 256" xml:space="preserve">

<defs>
</defs>
<g style="stroke: none; stroke-width: 0; stroke-dasharray: none; stroke-linecap: butt; stroke-linejoin: miter; stroke-miterlimit: 10; fill: none; fill-rule: nonzero; opacity: 1;" transform="translate(1.4065934065934016 1.4065934065934016) scale(2.81 2.81)" >
	<path d="M 73.383 90 H 16.617 c -2.57 0 -4.661 -2.091 -4.661 -4.661 V 17.985 c 0 -2.57 2.091 -4.661 4.661 -4.661 h 10.729 c 0.552 0 1 0.448 1 1 s -0.448 1 -1 1 H 16.617 c -1.467 0 -2.661 1.193 -2.661 2.661 v 67.354 c 0 1.468 1.193 2.661 2.661 2.661 h 56.766 c 1.468 0 2.661 -1.193 2.661 -2.661 V 17.985 c 0 -1.467 -1.193 -2.661 -2.661 -2.661 H 62.653 c -0.553 0 -1 -0.448 -1 -1 s 0.447 -1 1 -1 h 10.729 c 2.57 0 4.661 2.091 4.661 4.661 v 67.354 C 78.044 87.909 75.953 90 73.383 90 z" style="stroke: none; stroke-width: 1; stroke-dasharray: none; stroke-linecap: butt; stroke-linejoin: miter; stroke-miterlimit: 10; fill: #E1B3EF; fill-rule: nonzero; opacity: 1;" transform=" matrix(1 0 0 1 0 0) " stroke-linecap="round" />
	<path d="M 62.653 19.978 H 27.347 c -0.552 0 -1 -0.448 -1 -1 v -5.622 c 0 -3.545 2.884 -6.429 6.429 -6.429 h 3.664 C 37.283 2.92 40.816 0 45 0 s 7.717 2.92 8.561 6.928 h 3.664 c 3.545 0 6.429 2.884 6.429 6.429 v 5.622 C 63.653 19.53 63.206 19.978 62.653 19.978 z M 28.347 17.978 h 33.307 v -4.622 c 0 -2.442 -1.986 -4.429 -4.429 -4.429 h -4.518 c -0.512 0 -0.94 -0.386 -0.994 -0.895 C 51.349 4.594 48.463 2 45 2 c -3.463 0 -6.349 2.594 -6.712 6.033 c -0.054 0.509 -0.483 0.895 -0.995 0.895 h -4.518 c -2.442 0 -4.429 1.987 -4.429 4.429 V 17.978 z" style="stroke: none; stroke-width: 1; stroke-dasharray: none; stroke-linecap: butt; stroke-linejoin: miter; stroke-miterlimit: 10; fill: #E1B3EF; fill-rule: nonzero; opacity: 1;" transform=" matrix(1 0 0 1 0 0) " stroke-linecap="round" />
	<path d="M 28.077 37.297 c -0.028 0 -0.057 -0.001 -0.085 -0.004 c -0.311 -0.026 -0.591 -0.196 -0.758 -0.459 l -2.96 -4.651 c -0.296 -0.466 -0.159 -1.084 0.307 -1.381 c 0.466 -0.297 1.083 -0.16 1.381 0.307 l 2.257 3.547 l 7.916 -8.703 c 0.372 -0.407 1.004 -0.438 1.413 -0.067 c 0.409 0.372 0.438 1.004 0.067 1.413 l -8.797 9.671 C 28.626 37.179 28.357 37.297 28.077 37.297 z" style="stroke: none; stroke-width: 1; stroke-dasharray: none; stroke-linecap: butt; stroke-linejoin: miter; stroke-miterlimit: 10; fill: #E1B3EF; fill-rule: nonzero; opacity: 1;" transform=" matrix(1 0 0 1 0 0) " stroke-linecap="round" />
	<path d="M 35.207 41.401 H 20.699 c -0.552 0 -1 -0.448 -1 -1 V 26.828 c 0 -0.552 0.448 -1 1 -1 h 10.338 c 0.552 0 1 0.448 1 1 s -0.448 1 -1 1 h -9.338 v 11.574 h 12.508 v -4.353 c 0 -0.552 0.448 -1 1 -1 s 1 0.448 1 1 v 5.353 C 36.207 40.954 35.759 41.401 35.207 41.401 z" style="stroke: none; stroke-width: 1; stroke-dasharray: none; stroke-linecap: butt; stroke-linejoin: miter; stroke-miterlimit: 10; fill: #E1B3EF; fill-rule: nonzero; opacity: 1;" transform=" matrix(1 0 0 1 0 0) " stroke-linecap="round" />
	<path d="M 66.302 31.245 H 41.995 c -0.552 0 -1 -0.448 -1 -1 s 0.448 -1 1 -1 h 24.307 c 0.553 0 1 0.448 1 1 S 66.854 31.245 66.302 31.245 z" style="stroke: none; stroke-width: 1; stroke-dasharray: none; stroke-linecap: butt; stroke-linejoin: miter; stroke-miterlimit: 10; fill: #E1B3EF; fill-rule: nonzero; opacity: 1;" transform=" matrix(1 0 0 1 0 0) " stroke-linecap="round" />
	<path d="M 59.961 37.783 H 41.995 c -0.552 0 -1 -0.448 -1 -1 s 0.448 -1 1 -1 h 17.966 c 0.553 0 1 0.448 1 1 S 60.514 37.783 59.961 37.783 z" style="stroke: none; stroke-width: 1; stroke-dasharray: none; stroke-linecap: butt; stroke-linejoin: miter; stroke-miterlimit: 10; fill: #E1B3EF; fill-rule: nonzero; opacity: 1;" transform=" matrix(1 0 0 1 0 0) " stroke-linecap="round" />
	<path d="M 28.077 57.846 c -0.028 0 -0.057 -0.001 -0.085 -0.004 c -0.311 -0.026 -0.591 -0.196 -0.758 -0.459 l -2.96 -4.65 c -0.296 -0.466 -0.159 -1.084 0.307 -1.381 c 0.466 -0.295 1.083 -0.158 1.381 0.307 l 2.257 3.547 l 7.916 -8.703 c 0.372 -0.407 1.004 -0.438 1.413 -0.066 c 0.409 0.371 0.438 1.004 0.067 1.412 l -8.797 9.671 C 28.626 57.728 28.357 57.846 28.077 57.846 z" style="stroke: none; stroke-width: 1; stroke-dasharray: none; stroke-linecap: butt; stroke-linejoin: miter; stroke-miterlimit: 10; fill: #E1B3EF; fill-rule: nonzero; opacity: 1;" transform=" matrix(1 0 0 1 0 0) " stroke-linecap="round" />
	<path d="M 35.207 61.951 H 20.699 c -0.552 0 -1 -0.447 -1 -1 V 47.377 c 0 -0.553 0.448 -1 1 -1 h 10.338 c 0.552 0 1 0.447 1 1 s -0.448 1 -1 1 h -9.338 v 11.574 h 12.508 v -4.354 c 0 -0.553 0.448 -1 1 -1 s 1 0.447 1 1 v 5.354 C 36.207 61.504 35.759 61.951 35.207 61.951 z" style="stroke: none; stroke-width: 1; stroke-dasharray: none; stroke-linecap: butt; stroke-linejoin: miter; stroke-miterlimit: 10; fill: #E1B3EF; fill-rule: nonzero; opacity: 1;" transform=" matrix(1 0 0 1 0 0) " stroke-linecap="round" />
	<path d="M 66.302 51.794 H 41.995 c -0.552 0 -1 -0.447 -1 -1 s 0.448 -1 1 -1 h 24.307 c 0.553 0 1 0.447 1 1 S 66.854 51.794 66.302 51.794 z" style="stroke: none; stroke-width: 1; stroke-dasharray: none; stroke-linecap: butt; stroke-linejoin: miter; stroke-miterlimit: 10; fill: #E1B3EF; fill-rule: nonzero; opacity: 1;" transform=" matrix(1 0 0 1 0 0) " stroke-linecap="round" />
	<path d="M 59.961 58.332 H 41.995 c -0.552 0 -1 -0.447 -1 -1 s 0.448 -1 1 -1 h 17.966 c 0.553 0 1 0.447 1 1 S 60.514 58.332 59.961 58.332 z" style="stroke: none; stroke-width: 1; stroke-dasharray: none; stroke-linecap: butt; stroke-linejoin: miter; stroke-miterlimit: 10; fill: #E1B3EF; fill-rule: nonzero; opacity: 1;" transform=" matrix(1 0 0 1 0 0) " stroke-linecap="round" />
	<path d="M 28.077 78.396 c -0.028 0 -0.057 -0.001 -0.085 -0.004 c -0.311 -0.026 -0.591 -0.196 -0.758 -0.459 l -2.96 -4.651 c -0.296 -0.466 -0.159 -1.084 0.307 -1.381 c 0.466 -0.295 1.083 -0.158 1.381 0.307 l 2.257 3.548 l 7.916 -8.703 c 0.372 -0.407 1.004 -0.438 1.413 -0.066 c 0.409 0.371 0.438 1.004 0.067 1.412 l -8.797 9.671 C 28.626 78.277 28.357 78.396 28.077 78.396 z" style="stroke: none; stroke-width: 1; stroke-dasharray: none; stroke-linecap: butt; stroke-linejoin: miter; stroke-miterlimit: 10; fill: #E1B3EF; fill-rule: nonzero; opacity: 1;" transform=" matrix(1 0 0 1 0 0) " stroke-linecap="round" />
	<path d="M 35.207 82.5 H 20.699 c -0.552 0 -1 -0.447 -1 -1 V 67.927 c 0 -0.553 0.448 -1 1 -1 h 10.338 c 0.552 0 1 0.447 1 1 s -0.448 1 -1 1 h -9.338 V 80.5 h 12.508 v -4.353 c 0 -0.553 0.448 -1 1 -1 s 1 0.447 1 1 V 81.5 C 36.207 82.053 35.759 82.5 35.207 82.5 z" style="stroke: none; stroke-width: 1; stroke-dasharray: none; stroke-linecap: butt; stroke-linejoin: miter; stroke-miterlimit: 10; fill: #E1B3EF; fill-rule: nonzero; opacity: 1;" transform=" matrix(1 0 0 1 0 0) " stroke-linecap="round" />
	<path d="M 66.302 72.343 H 41.995 c -0.552 0 -1 -0.447 -1 -1 s 0.448 -1 1 -1 h 24.307 c 0.553 0 1 0.447 1 1 S 66.854 72.343 66.302 72.343 z" style="stroke: none; stroke-width: 1; stroke-dasharray: none; stroke-linecap: butt; stroke-linejoin: miter; stroke-miterlimit: 10; fill: #E1B3EF; fill-rule: nonzero; opacity: 1;" transform=" matrix(1 0 0 1 0 0) " stroke-linecap="round" />
	<path d="M 59.961 78.882 H 41.995 c -0.552 0 -1 -0.447 -1 -1 s 0.448 -1 1 -1 h 17.966 c 0.553 0 1 0.447 1 1 S 60.514 78.882 59.961 78.882 z" style="stroke: none; stroke-width: 1; stroke-dasharray: none; stroke-linecap: butt; stroke-linejoin: miter; stroke-miterlimit: 10; fill: #E1B3EF; fill-rule: nonzero; opacity: 1;" transform=" matrix(1 0 0 1 0 0) " stroke-linecap="round" />
	<path d="M 45 9.989 c -0.552 0 -1 -0.448 -1 -1 V 6.506 c 0 -0.552 0.448 -1 1 -1 s 1 0.448 1 1 v 2.483 C 46 9.542 45.552 9.989 45 9.989 z" style="stroke: none; stroke-width: 1; stroke-dasharray: none; stroke-linecap: butt; stroke-linejoin: miter; stroke-miterlimit: 10; fill: #E1B3EF; fill-rule: nonzero; opacity: 1;" transform=" matrix(1 0 0 1 0 0) " stroke-linecap="round" />
</g>
</svg>