<svg xmlns="http://www.w3.org/2000/svg" xmlns:xlink="http://www.w3.org/1999/xlink" version="1.1" width="256" height="256" viewBox="0 0 256 256" xml:space="preserve">

<defs>
</defs>
<g style="stroke: none; stroke-width: 0; stroke-dasharray: none; stroke-linecap: butt; stroke-linejoin: miter; stroke-miterlimit: 10; fill: none; fill-rule: nonzero; opacity: 1;" transform="translate(1.4065934065934016 1.4065934065934016) scale(2.81 2.81)" >
	<path d="M 77.165 69.789 H 62.668 c -1.41 0 -2.558 -1.146 -2.558 -2.557 v -5.215 c 0 -1.41 1.147 -2.558 2.558 -2.558 h 14.497 c 0.553 0 1 0.447 1 1 v 8.329 C 78.165 69.342 77.718 69.789 77.165 69.789 z M 62.668 61.46 c -0.308 0 -0.558 0.25 -0.558 0.558 v 5.215 c 0 0.307 0.25 0.557 0.558 0.557 h 13.497 V 61.46 H 62.668 z" style="stroke: none; stroke-width: 1; stroke-dasharray: none; stroke-linecap: butt; stroke-linejoin: miter; stroke-miterlimit: 10; fill: #E1B3EF; fill-rule: nonzero; opacity: 1;" transform=" matrix(1 0 0 1 0 0) " stroke-linecap="round" />
	<path d="M 77.165 90 H 18.291 c -3.56 0 -6.456 -2.896 -6.456 -6.456 V 41.303 c 0 -0.552 0.448 -1 1 -1 s 1 0.448 1 1 v 42.241 c 0 2.457 1.999 4.456 4.456 4.456 h 57.874 V 45.705 c 0 -0.552 0.447 -1 1 -1 s 1 0.448 1 1 V 89 C 78.165 89.553 77.718 90 77.165 90 z" style="stroke: none; stroke-width: 1; stroke-dasharray: none; stroke-linecap: butt; stroke-linejoin: miter; stroke-miterlimit: 10; fill: #E1B3EF; fill-rule: nonzero; opacity: 1;" transform=" matrix(1 0 0 1 0 0) " stroke-linecap="round" />
	<path d="M 77.165 46.705 H 17.237 c -2.979 0 -5.402 -2.423 -5.402 -5.402 c 0 -2.979 2.423 -5.402 5.402 -5.402 h 16.248 c 0.552 0 1 0.448 1 1 s -0.448 1 -1 1 H 17.237 c -1.876 0 -3.402 1.526 -3.402 3.402 s 1.526 3.402 3.402 3.402 h 58.928 v -6.804 h -8.388 c -0.553 0 -1 -0.448 -1 -1 s 0.447 -1 1 -1 h 9.388 c 0.553 0 1 0.448 1 1 v 8.804 C 78.165 46.258 77.718 46.705 77.165 46.705 z" style="stroke: none; stroke-width: 1; stroke-dasharray: none; stroke-linecap: butt; stroke-linejoin: miter; stroke-miterlimit: 10; fill: #E1B3EF; fill-rule: nonzero; opacity: 1;" transform=" matrix(1 0 0 1 0 0) " stroke-linecap="round" />
	<path d="M 77.165 42.303 H 18.256 c -0.552 0 -1 -0.448 -1 -1 s 0.448 -1 1 -1 h 58.909 c 0.553 0 1 0.448 1 1 S 77.718 42.303 77.165 42.303 z" style="stroke: none; stroke-width: 1; stroke-dasharray: none; stroke-linecap: butt; stroke-linejoin: miter; stroke-miterlimit: 10; fill: rgb(0,0,0); fill-rule: nonzero; opacity: 1;" transform=" matrix(1 0 0 1 0 0) " stroke-linecap="round" />
	<path d="M 70.041 65.625 h -4.527 c -0.553 0 -1 -0.447 -1 -1 s 0.447 -1 1 -1 h 4.527 c 0.553 0 1 0.447 1 1 S 70.594 65.625 70.041 65.625 z" style="stroke: none; stroke-width: 1; stroke-dasharray: none; stroke-linecap: butt; stroke-linejoin: miter; stroke-miterlimit: 10; fill: #E1B3EF; fill-rule: nonzero; opacity: 1;" transform=" matrix(1 0 0 1 0 0) " stroke-linecap="round" />
	<path d="M 28.445 30.848 c -4.769 0 -8.648 -3.88 -8.648 -8.648 s 3.879 -8.648 8.648 -8.648 s 8.648 3.879 8.648 8.648 S 33.213 30.848 28.445 30.848 z M 28.445 15.552 c -3.666 0 -6.648 2.982 -6.648 6.648 c 0 3.666 2.982 6.648 6.648 6.648 s 6.648 -2.982 6.648 -6.648 C 35.093 18.534 32.11 15.552 28.445 15.552 z" style="stroke: none; stroke-width: 1; stroke-dasharray: none; stroke-linecap: butt; stroke-linejoin: miter; stroke-miterlimit: 10; fill: #E1B3EF; fill-rule: nonzero; opacity: 1;" transform=" matrix(1 0 0 1 0 0) " stroke-linecap="round" />
	<path d="M 69.696 42.304 c -0.383 0 -0.747 -0.221 -0.914 -0.592 l -7.28 -16.26 L 24.063 42.216 c -0.504 0.226 -1.096 0 -1.321 -0.504 s 0 -1.096 0.504 -1.321 l 38.353 -17.173 c 0.24 -0.108 0.517 -0.116 0.765 -0.022 c 0.248 0.095 0.448 0.284 0.557 0.526 l 7.689 17.173 c 0.226 0.504 0 1.096 -0.505 1.321 C 69.972 42.275 69.832 42.304 69.696 42.304 z" style="stroke: none; stroke-width: 1; stroke-dasharray: none; stroke-linecap: butt; stroke-linejoin: miter; stroke-miterlimit: 10; fill: #E1B3EF; fill-rule: nonzero; opacity: 1;" transform=" matrix(1 0 0 1 0 0) " stroke-linecap="round" />
	<path d="M 35.732 42.304 c -0.382 0 -0.747 -0.221 -0.913 -0.592 c -0.226 -0.504 0 -1.096 0.504 -1.321 L 59.109 29.74 c 0.504 -0.227 1.096 0.001 1.321 0.504 l 4.77 10.651 c 0.226 0.504 0 1.096 -0.504 1.321 c -0.509 0.226 -1.097 0 -1.322 -0.504 l -4.36 -9.738 L 36.141 42.216 C 36.008 42.275 35.869 42.304 35.732 42.304 z" style="stroke: none; stroke-width: 1; stroke-dasharray: none; stroke-linecap: butt; stroke-linejoin: miter; stroke-miterlimit: 10; fill: #E1B3EF; fill-rule: nonzero; opacity: 1;" transform=" matrix(1 0 0 1 0 0) " stroke-linecap="round" />
	<path d="M 50.128 17.296 c -4.769 0 -8.648 -3.88 -8.648 -8.648 S 45.359 0 50.128 0 s 8.647 3.879 8.647 8.648 S 54.896 17.296 50.128 17.296 z M 50.128 2 c -3.666 0 -6.648 2.982 -6.648 6.648 c 0 3.666 2.982 6.648 6.648 6.648 c 3.665 0 6.647 -2.982 6.647 -6.648 C 56.775 4.982 53.793 2 50.128 2 z" style="stroke: none; stroke-width: 1; stroke-dasharray: none; stroke-linecap: butt; stroke-linejoin: miter; stroke-miterlimit: 10; fill: #E1B3EF; fill-rule: nonzero; opacity: 1;" transform=" matrix(1 0 0 1 0 0) " stroke-linecap="round" />
</g>
</svg>