<svg xmlns="http://www.w3.org/2000/svg" xmlns:xlink="http://www.w3.org/1999/xlink" version="1.1" width="256" height="256" viewBox="0 0 256 256" xml:space="preserve">

<defs>
</defs>
<g style="stroke: none; stroke-width: 0; stroke-dasharray: none; stroke-linecap: butt; stroke-linejoin: miter; stroke-miterlimit: 10; fill: none; fill-rule: nonzero; opacity: 1;" transform="translate(1.4065934065934016 1.4065934065934016) scale(2.81 2.81)" >
	<path d="M 5.072 11.951 H 3.617 c -0.552 0 -1 -0.448 -1 -1 s 0.448 -1 1 -1 h 1.455 c 0.552 0 1 0.448 1 1 S 5.624 11.951 5.072 11.951 z" style="stroke: none; stroke-width: 1; stroke-dasharray: none; stroke-linecap: butt; stroke-linejoin: miter; stroke-miterlimit: 10; fill: #E1B3EF; fill-rule: nonzero; opacity: 1;" transform=" matrix(1 0 0 1 0 0) " stroke-linecap="round" />
	<path d="M 12.364 11.951 h -1.455 c -0.552 0 -1 -0.448 -1 -1 s 0.448 -1 1 -1 h 1.455 c 0.552 0 1 0.448 1 1 S 12.916 11.951 12.364 11.951 z" style="stroke: none; stroke-width: 1; stroke-dasharray: none; stroke-linecap: butt; stroke-linejoin: miter; stroke-miterlimit: 10; fill: #E1B3EF; fill-rule: nonzero; opacity: 1;" transform=" matrix(1 0 0 1 0 0) " stroke-linecap="round" />
	<path d="M 7.991 9.032 c -0.552 0 -1 -0.448 -1 -1 V 6.577 c 0 -0.552 0.448 -1 1 -1 s 1 0.448 1 1 v 1.455 C 8.991 8.584 8.543 9.032 7.991 9.032 z" style="stroke: none; stroke-width: 1; stroke-dasharray: none; stroke-linecap: butt; stroke-linejoin: miter; stroke-miterlimit: 10; fill: #E1B3EF; fill-rule: nonzero; opacity: 1;" transform=" matrix(1 0 0 1 0 0) " stroke-linecap="round" />
	<path d="M 7.991 16.324 c -0.552 0 -1 -0.448 -1 -1 v -1.455 c 0 -0.552 0.448 -1 1 -1 s 1 0.448 1 1 v 1.455 C 8.991 15.876 8.543 16.324 7.991 16.324 z" style="stroke: none; stroke-width: 1; stroke-dasharray: none; stroke-linecap: butt; stroke-linejoin: miter; stroke-miterlimit: 10; fill: #E1B3EF; fill-rule: nonzero; opacity: 1;" transform=" matrix(1 0 0 1 0 0) " stroke-linecap="round" />
	<path d="M 52 1.995 c -0.26 0 -0.521 -0.11 -0.7 -0.29 c -0.19 -0.19 -0.3 -0.45 -0.3 -0.71 c 0 -0.26 0.109 -0.52 0.3 -0.71 c 0.27 -0.28 0.72 -0.36 1.09 -0.21 c 0.12 0.05 0.23 0.12 0.32 0.21 C 52.9 0.475 53 0.725 53 0.995 c 0 0.26 -0.101 0.52 -0.29 0.71 C 52.52 1.885 52.27 1.995 52 1.995 z" style="stroke: none; stroke-width: 1; stroke-dasharray: none; stroke-linecap: butt; stroke-linejoin: miter; stroke-miterlimit: 10; fill: #E1B3EF; fill-rule: nonzero; opacity: 1;" transform=" matrix(1 0 0 1 0 0) " stroke-linecap="round" />
	<path d="M 74.704 76.728 h -1.455 c -0.553 0 -1 -0.447 -1 -1 s 0.447 -1 1 -1 h 1.455 c 0.553 0 1 0.447 1 1 S 75.256 76.728 74.704 76.728 z" style="stroke: none; stroke-width: 1; stroke-dasharray: none; stroke-linecap: butt; stroke-linejoin: miter; stroke-miterlimit: 10; fill: #E1B3EF; fill-rule: nonzero; opacity: 1;" transform=" matrix(1 0 0 1 0 0) " stroke-linecap="round" />
	<path d="M 81.996 76.728 h -1.455 c -0.553 0 -1 -0.447 -1 -1 s 0.447 -1 1 -1 h 1.455 c 0.553 0 1 0.447 1 1 S 82.549 76.728 81.996 76.728 z" style="stroke: none; stroke-width: 1; stroke-dasharray: none; stroke-linecap: butt; stroke-linejoin: miter; stroke-miterlimit: 10; fill: #E1B3EF; fill-rule: nonzero; opacity: 1;" transform=" matrix(1 0 0 1 0 0) " stroke-linecap="round" />
	<path d="M 77.623 73.81 c -0.553 0 -1 -0.447 -1 -1 v -1.455 c 0 -0.553 0.447 -1 1 -1 s 1 0.447 1 1 v 1.455 C 78.623 73.362 78.176 73.81 77.623 73.81 z" style="stroke: none; stroke-width: 1; stroke-dasharray: none; stroke-linecap: butt; stroke-linejoin: miter; stroke-miterlimit: 10; fill: #E1B3EF; fill-rule: nonzero; opacity: 1;" transform=" matrix(1 0 0 1 0 0) " stroke-linecap="round" />
	<path d="M 77.623 81.101 c -0.553 0 -1 -0.447 -1 -1 v -1.454 c 0 -0.553 0.447 -1 1 -1 s 1 0.447 1 1 v 1.454 C 78.623 80.654 78.176 81.101 77.623 81.101 z" style="stroke: none; stroke-width: 1; stroke-dasharray: none; stroke-linecap: butt; stroke-linejoin: miter; stroke-miterlimit: 10; fill: #E1B3EF; fill-rule: nonzero; opacity: 1;" transform=" matrix(1 0 0 1 0 0) " stroke-linecap="round" />
	<path d="M 9.866 88.829 c -3.539 0 -6.419 -2.879 -6.419 -6.418 s 2.88 -6.419 6.419 -6.419 s 6.419 2.88 6.419 6.419 S 13.405 88.829 9.866 88.829 z M 9.866 77.991 c -2.437 0 -4.419 1.983 -4.419 4.419 s 1.982 4.418 4.419 4.418 s 4.419 -1.982 4.419 -4.418 S 12.303 77.991 9.866 77.991 z" style="stroke: none; stroke-width: 1; stroke-dasharray: none; stroke-linecap: butt; stroke-linejoin: miter; stroke-miterlimit: 10; fill: #E1B3EF; fill-rule: nonzero; opacity: 1;" transform=" matrix(1 0 0 1 0 0) " stroke-linecap="round" />
	<path d="M 44.38 46.618 c -0.27 0 -0.52 -0.101 -0.71 -0.29 c -0.19 -0.19 -0.29 -0.44 -0.29 -0.7 c 0 -0.07 0 -0.14 0.02 -0.2 c 0.01 -0.06 0.03 -0.13 0.05 -0.19 c 0.03 -0.06 0.06 -0.12 0.1 -0.17 c 0.03 -0.05 0.07 -0.11 0.12 -0.15 c 0.05 -0.05 0.1 -0.09 0.15 -0.13 c 0.06 -0.03 0.11 -0.06 0.17 -0.09 c 0.06 -0.02 0.13 -0.04 0.19 -0.05 c 0.33 -0.07 0.67 0.04 0.9 0.27 c 0.05 0.04 0.09 0.09 0.13 0.15 c 0.03 0.05 0.07 0.11 0.09 0.17 c 0.03 0.06 0.04 0.13 0.06 0.19 c 0.01 0.06 0.02 0.13 0.02 0.2 c 0 0.26 -0.11 0.51 -0.3 0.7 C 44.9 46.517 44.65 46.618 44.38 46.618 z" style="stroke: none; stroke-width: 1; stroke-dasharray: none; stroke-linecap: butt; stroke-linejoin: miter; stroke-miterlimit: 10; fill: #E1B3EF; fill-rule: nonzero; opacity: 1;" transform=" matrix(1 0 0 1 0 0) " stroke-linecap="round" />
	<path d="M 7.777 38.397 c -0.13 0 -0.26 -0.02 -0.38 -0.07 c -0.13 -0.05 -0.23 -0.12 -0.33 -0.22 c -0.18 -0.18 -0.29 -0.44 -0.29 -0.7 c 0 -0.07 0.01 -0.13 0.02 -0.2 c 0.01 -0.06 0.03 -0.13 0.06 -0.19 c 0.02 -0.06 0.05 -0.11 0.09 -0.17 c 0.03 -0.05 0.08 -0.1 0.12 -0.15 c 0.1 -0.09 0.2 -0.17 0.33 -0.22 c 0.36 -0.15 0.81 -0.06 1.09 0.22 c 0.04 0.05 0.09 0.1 0.12 0.15 c 0.04 0.06 0.07 0.11 0.09 0.17 c 0.03 0.06 0.05 0.13 0.06 0.19 c 0.01 0.07 0.02 0.13 0.02 0.2 c 0 0.26 -0.11 0.52 -0.29 0.7 C 8.297 38.297 8.038 38.397 7.777 38.397 z" style="stroke: none; stroke-width: 1; stroke-dasharray: none; stroke-linecap: butt; stroke-linejoin: miter; stroke-miterlimit: 10; fill: #E1B3EF; fill-rule: nonzero; opacity: 1;" transform=" matrix(1 0 0 1 0 0) " stroke-linecap="round" />
	<path d="M 81.651 56.178 c -0.14 0 -0.27 -0.02 -0.39 -0.07 c -0.12 -0.05 -0.23 -0.13 -0.32 -0.22 c -0.1 -0.1 -0.17 -0.2 -0.22 -0.33 c -0.05 -0.12 -0.07 -0.25 -0.07 -0.38 c 0 -0.26 0.101 -0.52 0.29 -0.7 c 0.04 -0.05 0.091 -0.09 0.15 -0.13 c 0.05 -0.04 0.11 -0.069 0.17 -0.09 c 0.06 -0.03 0.13 -0.05 0.19 -0.06 c 0.33 -0.07 0.67 0.04 0.899 0.279 c 0.19 0.181 0.3 0.44 0.3 0.7 c 0 0.13 -0.029 0.26 -0.08 0.38 c -0.05 0.13 -0.119 0.23 -0.22 0.33 C 82.172 56.078 81.912 56.178 81.651 56.178 z" style="stroke: none; stroke-width: 1; stroke-dasharray: none; stroke-linecap: butt; stroke-linejoin: miter; stroke-miterlimit: 10; fill: #E1B3EF; fill-rule: nonzero; opacity: 1;" transform=" matrix(1 0 0 1 0 0) " stroke-linecap="round" />
	<path d="M 27.388 5.355 c -0.26 0 -0.52 -0.11 -0.71 -0.3 c -0.09 -0.09 -0.16 -0.2 -0.21 -0.32 c -0.05 -0.12 -0.08 -0.25 -0.08 -0.38 c 0 -0.07 0.01 -0.13 0.02 -0.2 c 0.01 -0.06 0.03 -0.13 0.06 -0.19 c 0.02 -0.06 0.05 -0.12 0.09 -0.17 c 0.04 -0.05 0.08 -0.1 0.12 -0.15 c 0.38 -0.37 1.05 -0.37 1.42 0 c 0.05 0.05 0.09 0.1 0.12 0.15 c 0.04 0.05 0.07 0.11 0.1 0.17 c 0.02 0.06 0.04 0.13 0.05 0.19 c 0.02 0.07 0.02 0.13 0.02 0.2 c 0 0.13 -0.02 0.26 -0.07 0.38 c -0.06 0.12 -0.13 0.23 -0.22 0.32 C 27.908 5.245 27.649 5.355 27.388 5.355 z" style="stroke: none; stroke-width: 1; stroke-dasharray: none; stroke-linecap: butt; stroke-linejoin: miter; stroke-miterlimit: 10; fill: #E1B3EF; fill-rule: nonzero; opacity: 1;" transform=" matrix(1 0 0 1 0 0) " stroke-linecap="round" />
	<path d="M 80.964 13.047 c -3.539 0 -6.419 -2.88 -6.419 -6.419 c 0 -3.54 2.88 -6.419 6.419 -6.419 s 6.419 2.88 6.419 6.419 C 87.383 10.167 84.503 13.047 80.964 13.047 z M 80.964 2.209 c -2.437 0 -4.419 1.983 -4.419 4.419 s 1.983 4.419 4.419 4.419 c 2.437 0 4.419 -1.982 4.419 -4.419 S 83.4 2.209 80.964 2.209 z" style="stroke: none; stroke-width: 1; stroke-dasharray: none; stroke-linecap: butt; stroke-linejoin: miter; stroke-miterlimit: 10; fill: #E1B3EF; fill-rule: nonzero; opacity: 1;" transform=" matrix(1 0 0 1 0 0) " stroke-linecap="round" />
	<path d="M 40.478 80.047 c -18.576 0 -33.689 -15.112 -33.689 -33.688 c 0 -0.552 0.448 -1 1 -1 s 1 0.448 1 1 c 0 17.473 14.216 31.688 31.689 31.688 s 31.689 -14.216 31.689 -31.688 c 0 -0.552 0.447 -1 1 -1 s 1 0.448 1 1 C 74.167 64.935 59.054 80.047 40.478 80.047 z" style="stroke: none; stroke-width: 1; stroke-dasharray: none; stroke-linecap: butt; stroke-linejoin: miter; stroke-miterlimit: 10; fill: #E1B3EF; fill-rule: nonzero; opacity: 1;" transform=" matrix(1 0 0 1 0 0) " stroke-linecap="round" />
	<path d="M 73.167 47.359 c -0.553 0 -1 -0.447 -1 -1 c 0 -2.059 -0.284 -4.097 -0.844 -6.058 c -0.151 -0.531 0.156 -1.085 0.688 -1.236 c 0.527 -0.151 1.084 0.155 1.236 0.687 c 0.61 2.139 0.92 4.362 0.92 6.607 C 74.167 46.912 73.72 47.359 73.167 47.359 z" style="stroke: none; stroke-width: 1; stroke-dasharray: none; stroke-linecap: butt; stroke-linejoin: miter; stroke-miterlimit: 10; fill: #E1B3EF; fill-rule: nonzero; opacity: 1;" transform=" matrix(1 0 0 1 0 0) " stroke-linecap="round" />
	<path d="M 27.119 47.359 c -0.552 0 -1 -0.447 -1 -1 c 0 -13.247 10.777 -24.024 24.024 -24.024 c 6.301 0 12.257 2.422 16.768 6.818 c 0.396 0.386 0.403 1.019 0.018 1.414 c -0.385 0.397 -1.019 0.403 -1.414 0.019 c -4.135 -4.031 -9.594 -6.251 -15.371 -6.251 c -12.144 0 -22.024 9.88 -22.024 22.024 C 28.119 46.912 27.671 47.359 27.119 47.359 z" style="stroke: none; stroke-width: 1; stroke-dasharray: none; stroke-linecap: butt; stroke-linejoin: miter; stroke-miterlimit: 10; fill: #E1B3EF; fill-rule: nonzero; opacity: 1;" transform=" matrix(1 0 0 1 0 0) " stroke-linecap="round" />
	<path d="M 38.239 58.48 c -6.683 0 -12.12 -5.438 -12.12 -12.121 c 0 -0.552 0.448 -1 1 -1 s 1 0.448 1 1 c 0 5.58 4.54 10.121 10.12 10.121 c 0.552 0 1 0.447 1 1 C 39.239 58.032 38.791 58.48 38.239 58.48 z" style="stroke: none; stroke-width: 1; stroke-dasharray: none; stroke-linecap: butt; stroke-linejoin: miter; stroke-miterlimit: 10; fill: #E1B3EF; fill-rule: nonzero; opacity: 1;" transform=" matrix(1 0 0 1 0 0) " stroke-linecap="round" />
	<path d="M 80.964 45.886 c -0.553 0 -1 -0.448 -1 -1 c 0 -17.473 -14.216 -31.689 -31.688 -31.689 c -8.561 0 -16.583 3.361 -22.588 9.464 c -0.829 0.842 -1.618 1.739 -2.346 2.667 c -1.32 1.68 -2.472 3.498 -3.425 5.405 c -2.209 4.416 -3.329 9.178 -3.329 14.154 c 0 0.552 -0.448 1 -1 1 c -0.552 0 -1 -0.448 -1 -1 c 0 -5.289 1.191 -10.352 3.54 -15.048 c 1.014 -2.026 2.239 -3.96 3.642 -5.745 c 0.774 -0.986 1.613 -1.939 2.493 -2.834 c 6.384 -6.488 14.912 -10.061 24.014 -10.061 c 18.576 0 33.688 15.113 33.688 33.689 C 81.964 45.438 81.517 45.886 80.964 45.886 z" style="stroke: none; stroke-width: 1; stroke-dasharray: none; stroke-linecap: butt; stroke-linejoin: miter; stroke-miterlimit: 10; fill: #E1B3EF; fill-rule: nonzero; opacity: 1;" transform=" matrix(1 0 0 1 0 0) " stroke-linecap="round" />
	<path d="M 38.611 68.91 c -13.247 0 -24.024 -10.777 -24.024 -24.024 c 0 -0.552 0.448 -1 1 -1 c 0.552 0 1 0.448 1 1 c 0 12.144 9.88 22.024 22.024 22.024 c 2.223 0 4.417 -0.33 6.521 -0.982 c 0.528 -0.162 1.087 0.132 1.251 0.659 c 0.163 0.527 -0.132 1.088 -0.659 1.251 C 43.427 68.55 41.035 68.91 38.611 68.91 z" style="stroke: none; stroke-width: 1; stroke-dasharray: none; stroke-linecap: butt; stroke-linejoin: miter; stroke-miterlimit: 10; fill: #E1B3EF; fill-rule: nonzero; opacity: 1;" transform=" matrix(1 0 0 1 0 0) " stroke-linecap="round" />
	<path d="M 54.008 63.003 c -0.273 0 -0.546 -0.111 -0.743 -0.331 c -0.369 -0.41 -0.336 -1.043 0.074 -1.412 c 4.636 -4.172 7.295 -10.14 7.295 -16.374 c 0 -0.552 0.447 -1 1 -1 c 0.553 0 1 0.448 1 1 c 0 6.8 -2.901 13.31 -7.957 17.861 C 54.486 62.918 54.246 63.003 54.008 63.003 z" style="stroke: none; stroke-width: 1; stroke-dasharray: none; stroke-linecap: butt; stroke-linejoin: miter; stroke-miterlimit: 10; fill: #E1B3EF; fill-rule: nonzero; opacity: 1;" transform=" matrix(1 0 0 1 0 0) " stroke-linecap="round" />
	<path d="M 61.635 45.886 c -0.553 0 -1 -0.448 -1 -1 c 0 -5.58 -4.539 -10.12 -10.12 -10.12 c -0.553 0 -1 -0.448 -1 -1 s 0.447 -1 1 -1 c 6.683 0 12.12 5.437 12.12 12.12 C 62.635 45.438 62.187 45.886 61.635 45.886 z" style="stroke: none; stroke-width: 1; stroke-dasharray: none; stroke-linecap: butt; stroke-linejoin: miter; stroke-miterlimit: 10; fill: #E1B3EF; fill-rule: nonzero; opacity: 1;" transform=" matrix(1 0 0 1 0 0) " stroke-linecap="round" />
	<path d="M 43.611 52.39 c -1.67 0 -3.176 -0.597 -4.293 -1.714 c -0.391 -0.391 -0.391 -1.023 0 -1.414 s 1.023 -0.391 1.414 0 c 0.832 0.833 2.016 1.22 3.347 1.107 c 1.393 -0.125 2.759 -0.793 3.847 -1.881 c 1.088 -1.088 1.756 -2.454 1.881 -3.847 c 0.119 -1.325 -0.273 -2.514 -1.107 -3.347 c -0.833 -0.833 -2.02 -1.224 -3.347 -1.107 c -1.393 0.125 -2.759 0.794 -3.847 1.881 c -0.391 0.391 -1.023 0.391 -1.414 0 s -0.391 -1.023 0 -1.414 c 1.419 -1.419 3.223 -2.292 5.082 -2.459 c 1.931 -0.172 3.68 0.425 4.94 1.684 c 1.26 1.259 1.858 3.014 1.685 4.94 c -0.167 1.859 -1.041 3.664 -2.459 5.082 c -1.418 1.418 -3.223 2.292 -5.082 2.459 C 44.04 52.381 43.824 52.39 43.611 52.39 z" style="stroke: none; stroke-width: 1; stroke-dasharray: none; stroke-linecap: butt; stroke-linejoin: miter; stroke-miterlimit: 10; fill: #E1B3EF; fill-rule: nonzero; opacity: 1;" transform=" matrix(1 0 0 1 0 0) " stroke-linecap="round" />
	<path d="M 37.419 90 c -0.14 0 -0.27 -0.03 -0.39 -0.08 c -0.12 -0.05 -0.23 -0.12 -0.32 -0.21 c -0.09 -0.101 -0.17 -0.21 -0.22 -0.33 c -0.05 -0.12 -0.07 -0.25 -0.07 -0.38 c 0 -0.26 0.1 -0.521 0.29 -0.71 c 0.09 -0.09 0.2 -0.16 0.32 -0.21 c 0.19 -0.08 0.39 -0.101 0.58 -0.061 c 0.07 0.011 0.13 0.03 0.19 0.061 c 0.06 0.02 0.12 0.05 0.17 0.09 c 0.06 0.03 0.11 0.08 0.15 0.12 c 0.19 0.189 0.3 0.45 0.3 0.71 c 0 0.27 -0.11 0.52 -0.3 0.71 C 37.929 89.899 37.679 90 37.419 90 z" style="stroke: none; stroke-width: 1; stroke-dasharray: none; stroke-linecap: butt; stroke-linejoin: miter; stroke-miterlimit: 10; fill: #E1B3EF; fill-rule: nonzero; opacity: 1;" transform=" matrix(1 0 0 1 0 0) " stroke-linecap="round" />
	<path d="M 62.031 86.639 c -0.141 0 -0.271 -0.02 -0.391 -0.07 c -0.12 -0.05 -0.23 -0.119 -0.32 -0.22 c -0.09 -0.09 -0.17 -0.2 -0.22 -0.319 c -0.05 -0.12 -0.069 -0.25 -0.069 -0.381 c 0 -0.14 0.02 -0.27 0.069 -0.39 s 0.13 -0.23 0.22 -0.32 c 0.36 -0.37 1.051 -0.38 1.41 0 c 0.101 0.091 0.17 0.2 0.221 0.32 c 0.05 0.12 0.069 0.25 0.069 0.39 c 0 0.131 -0.02 0.261 -0.069 0.381 c -0.051 0.119 -0.12 0.229 -0.221 0.319 C 62.541 86.54 62.291 86.639 62.031 86.639 z" style="stroke: none; stroke-width: 1; stroke-dasharray: none; stroke-linecap: butt; stroke-linejoin: miter; stroke-miterlimit: 10; fill: #E1B3EF; fill-rule: nonzero; opacity: 1;" transform=" matrix(1 0 0 1 0 0) " stroke-linecap="round" />
	<path d="M 44.38 35.487 c -0.27 0 -0.52 -0.11 -0.71 -0.3 c -0.19 -0.18 -0.29 -0.44 -0.29 -0.7 c 0 -0.27 0.1 -0.52 0.29 -0.71 c 0.37 -0.37 1.04 -0.37 1.41 0 c 0.19 0.19 0.3 0.44 0.3 0.71 c 0 0.26 -0.11 0.52 -0.3 0.7 C 44.9 35.377 44.639 35.487 44.38 35.487 z" style="stroke: none; stroke-width: 1; stroke-dasharray: none; stroke-linecap: butt; stroke-linejoin: miter; stroke-miterlimit: 10; fill: #E1B3EF; fill-rule: nonzero; opacity: 1;" transform=" matrix(1 0 0 1 0 0) " stroke-linecap="round" />
</g>
</svg>